<svg xmlns="http://www.w3.org/2000/svg" viewBox="0 0 71.58 71.03"><defs><style>.cls-1,.cls-2,.cls-4,.cls-5,.cls-6,.cls-7,.cls-8,.cls-9{fill:none;}.cls-10,.cls-2,.cls-3,.cls-5{stroke:#26c485;}.cls-10,.cls-2,.cls-3,.cls-4,.cls-5,.cls-6{stroke-linecap:round;}.cls-10,.cls-2,.cls-3,.cls-4,.cls-5{stroke-linejoin:round;}.cls-10,.cls-2,.cls-4,.cls-6,.cls-7{stroke-width:2px;}.cls-10,.cls-3{fill:#fff;}.cls-3{stroke-width:1.99px;}.cls-4{stroke:#ff8c42;}.cls-5{stroke-width:1.19px;}.cls-6,.cls-7,.cls-8,.cls-9{stroke:#009fe3;stroke-miterlimit:10;}.cls-8{stroke-width:2.21px;}.cls-9{stroke-width:2.28px;}</style></defs><g id="Layer_2" data-name="Layer 2"><g id="Layer_1-2" data-name="Layer 1"><rect class="cls-1" x="0.28" width="71.03" height="71.03"/><path class="cls-2" d="M36.57,66.61s0,.12.3.12H66.25a4.34,4.34,0,0,0,4.33-4.33V8.4a4.35,4.35,0,0,0-4.33-4.34H36.87A4.35,4.35,0,0,0,32.53,8.4V49.21"/><line class="cls-3" x1="70.1" y1="57.45" x2="37.92" y2="57.45"/><ellipse class="cls-4" cx="19.34" cy="33.62" rx="10.61" ry="10.58"/><path class="cls-4" d="M15.38,46.53h7.91A14.38,14.38,0,0,1,37.68,60.92v2.75a3.3,3.3,0,0,1-3.3,3.3H4.3A3.3,3.3,0,0,1,1,63.67V60.92A14.38,14.38,0,0,1,15.38,46.53Z"/><circle class="cls-5" cx="51.56" cy="62.07" r="2.47"/><line class="cls-6" x1="51.95" y1="25.79" x2="60.41" y2="25.79"/><line class="cls-6" x1="52" y1="28.37" x2="60.46" y2="28.37"/><line class="cls-6" x1="48.96" y1="41.88" x2="53.64" y2="41.88"/><line class="cls-7" x1="39.16" y1="33.98" x2="39.16" y2="29.48"/><line class="cls-6" x1="47.58" y1="38.09" x2="47.58" y2="36.4"/><line class="cls-6" x1="55.44" y1="38.09" x2="55.44" y2="36.4"/><path class="cls-7" d="M61.29,31.41a3,3,0,0,1,.16.95V42.74a3,3,0,0,1-3,3H44.72a3,3,0,0,1-3-3V32.36a3,3,0,0,1,3-3h3.7"/><rect class="cls-8" x="61.96" y="34.55" width="3.36" height="6" rx="0.74"/><rect class="cls-9" x="37.92" y="34.55" width="3.59" height="6" rx="0.77"/><circle class="cls-7" cx="39.22" cy="28.06" r="1.34"/><path class="cls-7" d="M48.42,23.77v6.37a1.54,1.54,0,0,0,1.5,1.58h1.22a.26.26,0,0,1,.23.14h0l.57,1a.49.49,0,0,0,.87,0l.56-1h0a.29.29,0,0,1,.23-.14h9.14a1.54,1.54,0,0,0,1.5-1.59V23.77a1.54,1.54,0,0,0-1.5-1.59H49.92A1.54,1.54,0,0,0,48.42,23.77Z"/><line class="cls-10" x1="48.42" y1="8.71" x2="55.53" y2="8.71"/></g></g></svg>