<svg xmlns="http://www.w3.org/2000/svg" viewBox="0 0 71.14 71.7"><defs><style>.cls-1,.cls-2,.cls-3,.cls-4{fill:none;}.cls-2{stroke:#26c485;}.cls-2,.cls-4{stroke-linejoin:round;}.cls-2,.cls-3,.cls-4{stroke-width:2px;}.cls-3{stroke:#009fe3;stroke-miterlimit:10;}.cls-4{stroke:#ff8c42;stroke-linecap:round;}</style></defs><g id="Layer_2" data-name="Layer 2"><g id="Layer_1-2" data-name="Layer 1"><rect class="cls-1" x="0.05" y="0.34" width="71.03" height="71.03" transform="translate(0.05 -0.05) rotate(0.09)"/><path class="cls-2" d="M28.12,20.14V25.3a2.42,2.42,0,0,1-2.42,2.42L11,27.7a.44.44,0,0,0-.37.21l-.91,1.6a.8.8,0,0,1-1.4,0l-.91-1.59A.42.42,0,0,0,7,27.69H5a2.42,2.42,0,0,1-2.42-2.42l0-9.72a2.42,2.42,0,0,1,2.42-2.41l14,0"/><path class="cls-3" d="M52.52,13.38V4.23A3.18,3.18,0,0,0,49.36,1L22.2,1A3.19,3.19,0,0,0,19,4.18V16.94a3.18,3.18,0,0,0,3.18,3.19h11a.55.55,0,0,1,.28.07.58.58,0,0,1,.2.21l1.19,2.1a1.06,1.06,0,0,0,1.85,0l1.2-2.09a.52.52,0,0,1,.48-.28h5.24"/><path class="cls-4" d="M68.57,15.78v9.51a2.37,2.37,0,0,1-2.38,2.36H64.25a.44.44,0,0,0-.37.21h0L63,29.42a.79.79,0,0,1-1.37,0l-.89-1.56h0a.41.41,0,0,0-.36-.21L46,27.62a2.37,2.37,0,0,1-2.37-2.37V15.74A2.38,2.38,0,0,1,46,13.37l20.23,0A2.38,2.38,0,0,1,68.57,15.78Z"/><ellipse class="cls-3" cx="34.89" cy="38.61" rx="10.18" ry="10.2" transform="translate(-3.76 73.44) rotate(-89.91)"/><path class="cls-3" d="M31.06,51h7.61A13.83,13.83,0,0,1,52.5,64.86v2.65a3.17,3.17,0,0,1-3.17,3.17H20.4a3.17,3.17,0,0,1-3.17-3.17V64.86A13.83,13.83,0,0,1,31.06,51Z" transform="translate(0.09 -0.05) rotate(0.09)"/><path class="cls-4" d="M61.29,18.59a1.26,1.26,0,0,1,2.19,0l1.08,1.87,1.07,1.87a1.27,1.27,0,0,1-1.1,1.9H60.22a1.27,1.27,0,0,1-1.1-1.9l1.09-1.87Z"/><rect class="cls-3" x="32.57" y="7.18" width="6.38" height="6.38" rx="0.87" transform="matrix(1, 0, 0, 1, 0.02, -0.05)"/><circle class="cls-2" cx="9.38" cy="20.7" r="3.64"/></g></g></svg>