<svg xmlns="http://www.w3.org/2000/svg" viewBox="0 0 71.94 71.05"><defs><style>.cls-1,.cls-2,.cls-3,.cls-4,.cls-5{fill:none;}.cls-2,.cls-3{stroke:#009fe3;}.cls-2{stroke-linecap:square;stroke-width:2.05px;}.cls-2,.cls-4,.cls-5{stroke-linejoin:round;}.cls-3{stroke-miterlimit:10;}.cls-3,.cls-4,.cls-5{stroke-width:2px;}.cls-4{stroke:#26c485;}.cls-5{stroke:#ff8c42;stroke-linecap:round;}</style></defs><g id="Layer_2" data-name="Layer 2"><g id="Layer_1-2" data-name="Layer 1"><rect class="cls-1" x="0.45" y="0.02" width="71.03" height="71.03"/><path class="cls-2" d="M35.62,1.14a.6.6,0,0,1,.72,0l11.5,8.45,11.86,8.7H12.26l11.86-8.7Z"/><path class="cls-3" d="M12.21,18.83H59.73a0,0,0,0,1,0,0v2.93a2.33,2.33,0,0,1-2.33,2.33H14.54a2.33,2.33,0,0,1-2.33-2.33V18.83A0,0,0,0,1,12.21,18.83Z"/><polyline class="cls-3" points="21.18 29.59 25.08 29.59 25.08 47.31"/><line class="cls-3" x1="18.37" y1="42.26" x2="18.37" y2="42.25"/><polyline class="cls-3" points="46.64 47.49 46.64 29.59 50.68 29.59"/><path class="cls-3" d="M17,27c-.72-1.19-1.44-2.36-1.44-2.36H27.9l-2.73,4.85H21.1"/><path class="cls-3" d="M54.89,26.93l1.28-2.27H43.83s3,4.85,2.86,4.85h4.06"/><circle class="cls-3" cx="35.97" cy="11.75" r="2.84"/><ellipse class="cls-4" cx="15.03" cy="34.88" rx="8.11" ry="8.09"/><path class="cls-4" d="M27.46,50.06a11.18,11.18,0,0,0-2.38-2.75,11,11,0,0,0-6.71-2.55H12a11,11,0,0,0-11,11v2.11a2.52,2.52,0,0,0,2.52,2.52H18.71"/><ellipse class="cls-5" cx="56.91" cy="34.77" rx="8.11" ry="8.09"/><path class="cls-5" d="M53.53,60.39H68.42a2.52,2.52,0,0,0,2.52-2.52V55.76a11,11,0,0,0-11-11H53.88A11,11,0,0,0,44.54,50"/><ellipse class="cls-3" cx="35.97" cy="38.4" rx="9.27" ry="9.24"/><path class="cls-3" d="M32.31,49.17h7.62A13.85,13.85,0,0,1,53.78,63v2.65a3.18,3.18,0,0,1-3.18,3.18h-29a3.18,3.18,0,0,1-3.18-3.18V63A13.85,13.85,0,0,1,32.31,49.17Z"/></g></g></svg>